<?xml version="1.0" encoding="utf-8"?>
<!-- Generator: Adobe Illustrator 25.3.1, SVG Export Plug-In . SVG Version: 6.00 Build 0)  -->
<svg version="1.1" xmlns="http://www.w3.org/2000/svg" xmlns:xlink="http://www.w3.org/1999/xlink" x="0px" y="0px"
	 viewBox="0 0 50 50" style="enable-background:new 0 0 50 50;" xml:space="preserve">
<path d="M9.2,30.3l-0.1-1.7l-1.7-0.1L9.9,26H0v14.8c0,1.1,0.9,2.1,2.1,2.1h11.4V26l0,0L9.2,30.3z"/>
<path d="M21.7,28.5L20,28.6l-0.1,1.7L15.6,26l0,0v16.9h32.3c1.1,0,2.1-0.9,2.1-2.1V26H19.1L21.7,28.5z"/>
<path d="M0,9.2V24h10.1c-3.7-0.9-3.9-4.3-2.4-5.8c1.6-1.6,4.9-1.3,5.7,2.2V7.1H2.1C0.9,7.1,0,8,0,9.2z"/>
<path d="M47.9,7.1H15.5v13.1c0.8-3.3,4.2-3.8,5.7-2.2s1.2,4.9-2.4,5.8H50V9.2C50,8,49.1,7.1,47.9,7.1z"/>
<path d="M20.1,20.4c0-0.2,0-0.5-0.3-0.8c-0.5-0.5-1.4-0.3-1.9,0.2c-0.2,0.3-0.5,1.3-0.6,2.3C18.8,22,20,21.8,20.1,20.4z"/>
<path d="M9.5,21.5c0.3,0.2,1.2,0.5,2.3,0.6c-0.2-1.4-0.4-2.8-1.8-2.8C8.8,19.4,8.6,20.7,9.5,21.5z"/>
</svg>
